<svg width="11" height="16" viewBox="0 0 11 16" fill="none" xmlns="http://www.w3.org/2000/svg">
<path d="M0.576 15.288C1.408 15.3947 2.08 15.3627 2.592 15.192C3.104 15.032 3.47733 14.7653 3.712 14.392C3.94667 14.0293 4.064 13.5813 4.064 13.048V10.152C4.064 9.84267 4.08533 9.61867 4.128 9.48C4.17067 9.352 4.25067 9.26133 4.368 9.208C4.496 9.15467 4.672 9.09067 4.896 9.016V7.48C4.68267 7.39467 4.50667 7.32 4.368 7.256C4.24 7.192 4.144 7.096 4.08 6.968C4.02667 6.85067 4 6.664 4 6.408V2.6C4 2.07733 3.88267 1.62933 3.648 1.256C3.41333 0.882667 3.04 0.616 2.528 0.456C2.016 0.285333 1.344 0.253333 0.512 0.36V1.816C0.992 1.816 1.31733 1.88 1.488 2.008C1.65867 2.12533 1.744 2.38133 1.744 2.776V6.136C1.75467 6.50933 1.808 6.82933 1.904 7.096C2 7.36267 2.17067 7.58667 2.416 7.768C2.66133 7.96 3.00267 8.12 3.44 8.248C3.00267 8.32267 2.66133 8.44533 2.416 8.616C2.18133 8.78667 2.016 9.016 1.92 9.304C1.83467 9.60267 1.79733 9.976 1.808 10.424V12.84C1.808 13.2453 1.72267 13.512 1.552 13.64C1.38133 13.768 1.056 13.832 0.576 13.832V15.288ZM10.2855 15.288V13.832C9.81617 13.832 9.49617 13.768 9.3255 13.64C9.15483 13.512 9.0695 13.2453 9.0695 12.84V10.424C9.08017 9.976 9.0375 9.60267 8.9415 9.304C8.85617 9.016 8.69083 8.78667 8.4455 8.616C8.21083 8.44533 7.8695 8.32267 7.4215 8.248C7.8695 8.12 8.21617 7.96 8.4615 7.768C8.70683 7.58667 8.8775 7.36267 8.9735 7.096C9.08017 6.82933 9.1335 6.50933 9.1335 6.136V2.776C9.1335 2.38133 9.21883 2.12533 9.3895 2.008C9.56017 1.88 9.88017 1.816 10.3495 1.816V0.36C9.52817 0.253333 8.8615 0.285333 8.3495 0.456C7.8375 0.616 7.45883 0.882667 7.2135 1.256C6.97883 1.62933 6.8615 2.07733 6.8615 2.6V6.408C6.8615 6.664 6.8295 6.85067 6.7655 6.968C6.71217 7.096 6.6215 7.192 6.4935 7.256C6.3655 7.32 6.19483 7.39467 5.9815 7.48V9.016C6.2055 9.09067 6.37617 9.15467 6.4935 9.208C6.61083 9.26133 6.69083 9.352 6.7335 9.48C6.77617 9.61867 6.7975 9.84267 6.7975 10.152V13.048C6.7975 13.5813 6.91483 14.0293 7.1495 14.392C7.39483 14.7653 7.7735 15.032 8.2855 15.192C8.7975 15.3627 9.46417 15.3947 10.2855 15.288Z" fill="#21E6C1"/>
</svg>
