<svg width="32" height="32" viewBox="0 0 32 32" fill="none" xmlns="http://www.w3.org/2000/svg">
<path d="M16 0L3 1.32267V24.4836L16 32L29 24.4836V1.32267L16.1317 0.0142223L16 0ZM27.2954 23.5449L16 30.08L4.70456 23.5449V14.0516L15.9488 20.5582L15.9634 21.7387L8.24536 17.2729L8.23804 18.4249L15.9854 22.9476L16.0073 24.1564L8.25999 19.6764L8.25267 20.8213L16 25.344L23.8205 20.7929V19.6409L23.8132 19.648V15.9076L27.2954 13.888V23.5449ZM27.2881 12.6578L22.7743 15.2462L15.9707 11.3067L15.9634 12.4516L21.7794 15.808L21.7282 15.8364L21.5965 15.9076L20.7698 16.384L15.9707 13.6107L15.9634 14.7484L19.753 16.9387L18.8604 17.5218L18.8385 17.5289L15.9781 15.8862L15.9707 17.0311L17.8436 18.112L15.9342 19.2284L4.74114 12.7573L15.9488 6.208L27.2881 12.6578ZM27.2954 11.5129L15.9342 5.00622L4.70456 11.5058V2.80889L16 1.65689L27.3028 2.80889L27.2954 11.5129Z" fill="#F25C2A"/>
</svg>
