<svg width="156" height="16" viewBox="0 0 156 16" fill="none" xmlns="http://www.w3.org/2000/svg">
<path d="M6.384 1.96C6.58667 1.96 6.76267 2.01867 6.912 2.136C7.072 2.25333 7.17867 2.408 7.232 2.6L10.432 13H7.936L7.12 10.072H3.312L2.512 13H0.016L3.216 2.6C3.26933 2.408 3.37067 2.25333 3.52 2.136C3.68 2.01867 3.86133 1.96 4.064 1.96H6.384ZM4.768 4.872L3.824 8.248H6.608L5.68 4.872C5.62667 4.70133 5.57867 4.52533 5.536 4.344C5.504 4.152 5.472 3.97067 5.44 3.8H5.008C4.976 3.97067 4.93867 4.152 4.896 4.344C4.85333 4.52533 4.81067 4.70133 4.768 4.872ZM13.9575 1.96V10.216C13.9575 10.76 14.2455 11.032 14.8215 11.032H18.6775L18.7895 12.872C18.0215 12.9573 17.2215 13.0053 16.3895 13.016C15.5682 13.0267 14.7575 13.032 13.9575 13.032C13.1468 13.032 12.5388 12.8187 12.1335 12.392C11.7282 11.9653 11.5255 11.416 11.5255 10.744V1.96H13.9575ZM22.392 1.912C23.256 1.912 24.152 1.92267 25.08 1.944C26.008 1.95467 26.856 1.99733 27.624 2.072L27.512 3.848H23.272C22.7387 3.848 22.472 4.12 22.472 4.664V6.392H26.92V8.12H22.472V10.296C22.472 10.84 22.7387 11.112 23.272 11.112H27.512L27.624 12.888C26.856 12.9627 26.008 13.0053 25.08 13.016C24.152 13.0267 23.256 13.032 22.392 13.032C21.688 13.032 21.1173 12.8347 20.68 12.44C20.2427 12.0347 20.024 11.496 20.024 10.824V4.136C20.024 3.464 20.2427 2.92533 20.68 2.52C21.1173 2.11467 21.688 1.912 22.392 1.912ZM42.4858 1.912C43.3498 1.912 44.2458 1.92267 45.1738 1.944C46.1018 1.95467 46.9498 1.99733 47.7178 2.072L47.6058 3.848H43.3658C42.8324 3.848 42.5658 4.12 42.5658 4.664V6.392H47.0138V8.12H42.5658V10.296C42.5658 10.84 42.8324 11.112 43.3658 11.112H47.6058L47.7178 12.888C46.9498 12.9627 46.1018 13.0053 45.1738 13.016C44.2458 13.0267 43.3498 13.032 42.4858 13.032C41.7818 13.032 41.2111 12.8347 40.7738 12.44C40.3364 12.0347 40.1178 11.496 40.1178 10.824V4.136C40.1178 3.464 40.3364 2.92533 40.7738 2.52C41.2111 2.11467 41.7818 1.912 42.4858 1.912ZM58.1198 1.96L54.4558 9.336V13H52.0238V9.336L48.3598 1.96H50.8878L52.7438 6.024C52.8398 6.248 52.9198 6.48267 52.9838 6.728C53.0478 6.96267 53.1064 7.192 53.1598 7.416H53.3198C53.3731 7.192 53.4318 6.95733 53.4958 6.712C53.5704 6.46667 53.6504 6.23733 53.7358 6.024L55.5918 1.96H58.1198ZM66.5803 1.768C67.0923 1.768 67.5349 1.784 67.9083 1.816C68.2816 1.83733 68.6229 1.87467 68.9323 1.928C69.2416 1.98133 69.5616 2.05067 69.8923 2.136L69.7003 3.944C69.3483 3.92267 69.0229 3.90667 68.7243 3.896C68.4256 3.88533 68.1056 3.87467 67.7643 3.864C67.4336 3.85333 67.0389 3.848 66.5803 3.848C66.0363 3.848 65.6096 3.96 65.3003 4.184C64.9909 4.39733 64.7723 4.76533 64.6443 5.288C64.5269 5.81067 64.4683 6.54133 64.4683 7.48C64.4683 8.408 64.5269 9.13867 64.6443 9.672C64.7723 10.1947 64.9909 10.5627 65.3003 10.776C65.6096 10.9893 66.0363 11.096 66.5803 11.096C67.3163 11.096 67.9349 11.0907 68.4363 11.08C68.9376 11.0587 69.4336 11.016 69.9243 10.952L70.1323 12.744C69.6203 12.904 69.0976 13.016 68.5643 13.08C68.0309 13.1547 67.3696 13.192 66.5803 13.192C65.4389 13.192 64.5216 13.0107 63.8283 12.648C63.1456 12.2747 62.6549 11.672 62.3563 10.84C62.0576 10.008 61.9083 8.888 61.9083 7.48C61.9083 6.072 62.0576 4.952 62.3563 4.12C62.6549 3.288 63.1456 2.69067 63.8283 2.328C64.5216 1.95467 65.4389 1.768 66.5803 1.768ZM74.1305 1.96V6.2H78.0665V1.96H80.4985V13H78.0665V8.024H74.1305V13H71.6825V1.96H74.1305ZM85.017 1.912C85.881 1.912 86.777 1.92267 87.705 1.944C88.633 1.95467 89.481 1.99733 90.249 2.072L90.137 3.848H85.897C85.3637 3.848 85.097 4.12 85.097 4.664V6.392H89.545V8.12H85.097V10.296C85.097 10.84 85.3637 11.112 85.897 11.112H90.137L90.249 12.888C89.481 12.9627 88.633 13.0053 87.705 13.016C86.777 13.0267 85.881 13.032 85.017 13.032C84.313 13.032 83.7423 12.8347 83.305 12.44C82.8677 12.0347 82.649 11.496 82.649 10.824V4.136C82.649 3.464 82.8677 2.92533 83.305 2.52C83.7423 2.11467 84.313 1.912 85.017 1.912ZM100.235 1.96V3.88H96.907V13H94.475V3.88H91.147V1.96H100.235ZM110.612 1.96L107.604 12.328C107.551 12.5307 107.444 12.696 107.284 12.824C107.124 12.9413 106.943 13 106.74 13H104.5C104.287 13 104.1 12.9413 103.94 12.824C103.791 12.696 103.689 12.5307 103.636 12.328L100.628 1.96H103.14L105.156 9.928C105.199 10.1307 105.241 10.3387 105.284 10.552C105.327 10.7547 105.369 10.9573 105.412 11.16H105.828C105.903 10.744 105.993 10.328 106.1 9.912L108.1 1.96H110.612ZM114.111 1.912C114.975 1.912 115.871 1.92267 116.799 1.944C117.727 1.95467 118.575 1.99733 119.343 2.072L119.231 3.848H114.991C114.457 3.848 114.191 4.12 114.191 4.664V6.392H118.639V8.12H114.191V10.296C114.191 10.84 114.457 11.112 114.991 11.112H119.231L119.343 12.888C118.575 12.9627 117.727 13.0053 116.799 13.016C115.871 13.0267 114.975 13.032 114.111 13.032C113.407 13.032 112.836 12.8347 112.399 12.44C111.961 12.0347 111.743 11.496 111.743 10.824V4.136C111.743 3.464 111.961 2.92533 112.399 2.52C112.836 2.11467 113.407 1.912 114.111 1.912ZM125.329 1.8C126.299 1.8 127.083 1.90133 127.681 2.104C128.289 2.296 128.731 2.632 129.009 3.112C129.297 3.58133 129.441 4.23733 129.441 5.08C129.441 5.85867 129.281 6.488 128.961 6.968C128.651 7.43733 128.102 7.72 127.313 7.816V7.896C127.601 7.96 127.905 8.11467 128.225 8.36C128.545 8.59467 128.769 8.99467 128.897 9.56L129.857 13H127.297L126.449 9.624C126.342 9.272 126.193 9.02667 126.001 8.888C125.819 8.74933 125.563 8.68 125.233 8.68C124.529 8.68 123.947 8.67467 123.489 8.664V13H121.089V1.96C121.526 1.91733 121.942 1.88533 122.337 1.864C122.731 1.84267 123.163 1.82667 123.633 1.816C124.102 1.80533 124.667 1.8 125.329 1.8ZM125.281 3.64C124.63 3.64 124.033 3.64 123.489 3.64V6.84H125.281C125.931 6.84 126.379 6.73333 126.625 6.52C126.87 6.296 126.993 5.864 126.993 5.224C126.993 4.59467 126.87 4.17333 126.625 3.96C126.379 3.74667 125.931 3.64 125.281 3.64ZM133.88 1.96V5.08C133.88 5.53867 133.837 5.98133 133.752 6.408H134.744L137.56 1.96H140.2L137.32 6.408C137.203 6.6 137.075 6.76533 136.936 6.904C136.797 7.032 136.659 7.144 136.52 7.24V7.288C136.669 7.384 136.829 7.51733 137 7.688C137.171 7.85867 137.309 8.03467 137.416 8.216L140.392 13H137.672L134.76 8.104H133.752C133.795 8.296 133.827 8.48267 133.848 8.664C133.869 8.84533 133.88 9.02133 133.88 9.192V13H131.448V1.96H133.88ZM144.021 1.96V13H141.589V1.96H144.021ZM155.573 1.96V12.12C155.573 12.7067 155.28 13 154.693 13H153.349C153.082 13 152.88 12.9413 152.741 12.824C152.613 12.696 152.485 12.5093 152.357 12.264L149.301 6.456C149.173 6.22133 149.045 5.95467 148.917 5.656C148.8 5.35733 148.698 5.06933 148.613 4.792H148.437C148.512 5.38933 148.549 5.96533 148.549 6.52V13H146.245V2.84C146.245 2.25333 146.538 1.96 147.125 1.96H148.453C148.709 1.96 148.901 2.024 149.029 2.152C149.168 2.26933 149.301 2.44533 149.429 2.68L152.389 8.312C152.517 8.55733 152.65 8.83467 152.789 9.144C152.928 9.44267 153.061 9.74667 153.189 10.056H153.381C153.349 9.74667 153.322 9.44267 153.301 9.144C153.29 8.83467 153.285 8.52533 153.285 8.216V1.96H155.573Z" fill="white"/>
<path d="M28.842 0.712C30.0687 0.551999 30.954 0.690666 31.498 1.128C32.042 1.55467 32.314 2.15733 32.314 2.936V5.848C32.314 6.15733 32.3353 6.38133 32.378 6.52C32.4207 6.648 32.5007 6.73867 32.618 6.792C32.7353 6.84533 32.9113 6.90933 33.146 6.984V8.52C32.9327 8.60533 32.7567 8.68 32.618 8.744C32.49 8.808 32.394 8.904 32.33 9.032C32.2767 9.14933 32.25 9.33067 32.25 9.576V13.4C32.25 14.1893 31.978 14.7973 31.434 15.224C30.89 15.6613 30.0047 15.8 28.778 15.64V14.184C29.2473 14.184 29.5673 14.1253 29.738 14.008C29.9087 13.8907 29.994 13.6293 29.994 13.224V9.848C30.0047 9.29333 30.122 8.856 30.346 8.536C30.5807 8.20533 31.034 7.944 31.706 7.752C31.0447 7.64533 30.602 7.42667 30.378 7.096C30.154 6.75467 30.0473 6.248 30.058 5.576V3.144C30.058 2.74933 29.9727 2.488 29.802 2.36C29.6313 2.232 29.3113 2.168 28.842 2.168V0.712ZM38.5199 0.712V2.168C38.0505 2.168 37.7305 2.232 37.5599 2.36C37.3892 2.488 37.3039 2.74933 37.3039 3.144V5.576C37.3145 6.248 37.2079 6.75467 36.9839 7.096C36.7599 7.42667 36.3172 7.64533 35.6559 7.752C36.3279 7.944 36.7759 8.20533 36.9999 8.536C37.2345 8.856 37.3572 9.29333 37.3679 9.848V13.224C37.3679 13.6293 37.4532 13.8907 37.6239 14.008C37.7945 14.1253 38.1145 14.184 38.5839 14.184V15.64C37.3465 15.8 36.4559 15.6613 35.9119 15.224C35.3785 14.7973 35.1119 14.1893 35.1119 13.4V9.576C35.1119 9.33067 35.0799 9.14933 35.0159 9.032C34.9519 8.904 34.8559 8.808 34.7279 8.744C34.5999 8.68 34.4292 8.60533 34.2159 8.52V6.984C34.4399 6.90933 34.6105 6.84533 34.7279 6.792C34.8452 6.73867 34.9252 6.648 34.9679 6.52C35.0212 6.38133 35.0479 6.15733 35.0479 5.848V2.936C35.0479 2.15733 35.3145 1.55467 35.8479 1.128C36.3919 0.690666 37.2825 0.551999 38.5199 0.712Z" fill="#21E6C1"/>
</svg>
